<?xml version="1.0" standalone="no"?>
<!DOCTYPE svg PUBLIC "-//W3C//DTD SVG 20010904//EN"
 "http://www.w3.org/TR/2001/REC-SVG-20010904/DTD/svg10.dtd">
<svg version="1.0" xmlns="http://www.w3.org/2000/svg"
 width="200.000000pt" height="200.000000pt" viewBox="0 0 200.000000 200.000000"
 preserveAspectRatio="xMidYMid meet">

<g transform="translate(0.000000,200.000000) scale(0.100000,-0.100000)"
fill="#000000" stroke="none">
<path d="M297 1863 c-3 -5 -8 -27 -12 -49 -10 -65 10 -123 61 -171 24 -23 39
-45 34 -48 -4 -3 -16 -27 -24 -53 -9 -26 -31 -65 -48 -87 l-32 -38 -11 49 c-7
32 -15 49 -25 49 -13 0 -14 -18 -12 -110 4 -131 14 -177 51 -230 16 -22 41
-75 56 -118 15 -43 29 -76 30 -75 2 2 8 41 14 87 l11 85 -50 74 c-57 84 -61
109 -25 167 41 66 85 159 85 178 0 10 21 40 47 68 53 57 51 77 -5 32 l-38 -30
4 33 c7 60 -7 104 -50 150 -40 44 -53 51 -61 37z"/>
<path d="M845 1544 c-11 -3 -45 -14 -76 -25 -31 -10 -91 -28 -133 -39 -79 -20
-106 -35 -188 -104 -72 -59 -64 -103 25 -141 48 -20 71 -20 63 1 -12 32 6 84
44 123 28 29 64 49 141 79 156 61 198 66 354 42 209 -31 292 -65 332 -135 34
-61 30 -107 -13 -155 -39 -43 -38 -52 6 -75 42 -22 122 -2 173 43 23 20 22 26
-14 67 l-31 35 37 0 c69 0 109 42 81 86 -23 35 -75 57 -213 93 -67 17 -138 38
-158 47 -76 31 -193 54 -300 59 -60 2 -119 2 -130 -1z"/>
<path d="M878 1459 c-78 -15 -239 -86 -275 -120 -17 -18 -35 -44 -38 -58 -8
-39 17 -111 45 -132 14 -10 84 -29 155 -44 119 -24 143 -26 275 -20 213 10
263 28 223 79 -17 22 -21 23 -44 10 -82 -45 -271 -55 -385 -20 -64 20 -122 70
-130 113 -6 29 -1 38 33 72 56 57 127 76 273 75 94 0 125 -5 172 -23 99 -38
140 -101 108 -161 -8 -16 -6 -22 14 -36 24 -15 27 -15 56 6 80 57 31 168 -93
209 -117 39 -317 64 -389 50z"/>
<path d="M891 1375 c-35 -8 -81 -26 -102 -39 -71 -48 -61 -99 30 -144 52 -25
65 -27 186 -27 115 0 136 3 183 24 54 24 66 47 37 71 -21 18 -13 22 19 11 22
-9 26 -8 26 8 0 38 -73 83 -165 100 -75 14 -134 13 -214 -4z m237 -52 c37 -28
36 -69 -1 -97 -24 -18 -42 -21 -122 -21 -79 0 -98 3 -122 21 -52 39 -38 86 32
113 49 18 181 8 213 -16z"/>
<path d="M937 1310 c-32 -10 -57 -28 -57 -42 0 -18 70 -38 132 -38 150 0 156
76 8 86 -30 2 -68 -1 -83 -6z"/>
<path d="M1646 1248 c-18 -10 -18 -21 -12 -212 6 -171 11 -241 30 -424 2 -19
19 -31 94 -64 51 -22 99 -38 107 -34 8 3 20 17 27 31 16 35 -8 79 -62 118 -86
61 -134 198 -153 439 -11 149 -13 156 -31 146z"/>
<path d="M400 1194 l0 -35 31 22 31 22 -23 13 c-35 20 -39 17 -39 -22z"/>
<path d="M499 1184 c-63 -36 -79 -53 -79 -84 0 -42 75 -97 160 -115 34 -8 176
-16 270 -16 25 0 79 -1 120 -1 286 -5 314 -4 350 17 43 26 53 77 21 116 l-19
24 -24 -22 c-40 -37 -78 -45 -248 -50 -153 -5 -175 -4 -295 22 -71 15 -141 34
-153 42 -13 8 -31 32 -41 53 l-17 39 -45 -25z"/>
<path d="M1573 1115 c-34 -24 -130 -46 -158 -35 l-23 9 4 -202 c6 -257 10
-287 34 -287 34 0 51 -12 70 -50 24 -47 47 -56 80 -32 55 42 60 63 45 207 -8
72 -18 192 -22 268 l-8 138 -22 -16z"/>
<path d="M392 853 c-13 -96 -28 -187 -33 -201 -14 -37 -62 -86 -139 -140 -99
-69 -122 -93 -108 -109 36 -44 163 -63 206 -32 120 87 113 84 197 87 44 2 86
9 94 16 26 21 51 94 66 195 19 126 35 171 28 81 -18 -254 -28 -286 -124 -382
-62 -63 -113 -152 -107 -190 5 -35 63 -60 110 -47 30 8 50 27 99 89 62 81 83
95 192 135 27 9 69 33 93 52 43 32 47 33 82 22 87 -28 143 -60 211 -122 88
-79 166 -123 202 -114 46 12 79 45 79 80 0 59 -21 109 -66 157 -24 25 -56 73
-71 106 -25 55 -27 72 -33 236 -3 98 -9 180 -12 183 -3 3 -22 -2 -44 -12 -38
-17 -86 -18 -349 -11 -33 1 -78 0 -100 -1 -22 -1 -96 2 -165 7 -128 10 -213
33 -262 71 l-23 19 -23 -175z"/>
<path d="M303 845 c-28 -29 -77 -68 -109 -87 -32 -18 -59 -39 -61 -45 -2 -6
11 -14 29 -18 18 -4 51 -18 74 -31 49 -29 70 -30 83 -6 9 18 45 232 39 237 -2
2 -26 -21 -55 -50z"/>
</g>
</svg>
