<svg id="Слой_1" data-name="Слой 1" xmlns="http://www.w3.org/2000/svg" viewBox="0 0 141.29 18.31"><defs><style>.cls-1{fill:#1a3965;}</style></defs><path class="cls-1" d="M9.66,5.26h-3V18.17H3.49V5.26H.5V2.09H9.66Z" transform="translate(-0.5 -0.85)"/><path class="cls-1" d="M22.85,18.17H19.68V14.48h-4v3.69H12.52V14.48H10.67V11.31h1.85V6.46l5.14-5,5.19,5Zm-3.17-6.86V7.8l-2-1.91-2,1.91v3.51Z" transform="translate(-0.5 -0.85)"/><path class="cls-1" d="M33,18.13H23.86V15h1.21V2.09h3.18V15H33Z" transform="translate(-0.5 -0.85)"/><path class="cls-1" d="M37.21,18.17H34V2.09h3.17Zm7.86,0H42.29l-4.68-8,4.68-8h2.78V5.26h-1l-2.84,4.85L44.1,15h1Z" transform="translate(-0.5 -0.85)"/><path class="cls-1" d="M49.24,18.17H46.07V2.09h3.17Z" transform="translate(-0.5 -0.85)"/><path class="cls-1" d="M60.06,18.17H56.87V14.35l-3.45-5.9v9.72H50.25V2.09h3.13l3.49,6v-6h3.19Z" transform="translate(-0.5 -0.85)"/><path class="cls-1" d="M74,18.13H65.77l-4.7-8,4.7-8H71V5.26H67.58l-2.86,4.85L67.58,15h3.25V11.27h-3.9V8.09H74Z" transform="translate(-0.5 -0.85)"/><path class="cls-1" d="M87.4,12.63,83,19l-2.6-1.8,3.15-4.54L79.74,7.19,84.12.85l2.65,1.81L83.6,7.19Z" transform="translate(-0.5 -0.85)"/><path class="cls-1" d="M97.56,5.26h-3V18.17H91.39V5.26h-3V2.09h9.15Z" transform="translate(-0.5 -0.85)"/><path class="cls-1" d="M108.88,15.19l-5.12,3.24-5.19-3.24V2.09h3.17V13.45l2,1.24,1.95-1.24V2.09h3.17Z" transform="translate(-0.5 -0.85)"/><path class="cls-1" d="M129.11,18.11l-3,1.05L122.32,8.6l-2.83,5-2.84-5-3.8,10.56-3-1.05L116,1l3.47,6.17L123,1Z" transform="translate(-0.5 -0.85)"/><path class="cls-1" d="M141.79,8.2l-5.08,6.11h-3.42v3.86h-3.18V2.09h6.6Zm-4.14,0-2.43-2.94h-1.93v5.88h1.93Z" transform="translate(-0.5 -0.85)"/></svg>