<?xml version="1.0" standalone="no"?>
<!DOCTYPE svg PUBLIC "-//W3C//DTD SVG 20010904//EN"
 "http://www.w3.org/TR/2001/REC-SVG-20010904/DTD/svg10.dtd">
<svg version="1.0" xmlns="http://www.w3.org/2000/svg"
 width="512.000000pt" height="512.000000pt" viewBox="0 0 512.000000 512.000000"
 preserveAspectRatio="xMidYMid meet">

<g transform="translate(0.000000,512.000000) scale(0.100000,-0.100000)"
fill="#000000" stroke="none">
<path d="M2075 5114 c-38 -2 -169 -8 -290 -14 -417 -20 -868 -61 -994 -91
-204 -47 -408 -185 -537 -364 -55 -76 -121 -221 -143 -316 -28 -121 -63 -496
-93 -994 -16 -276 -16 -1274 0 -1550 30 -506 65 -876 94 -995 22 -94 78 -222
129 -297 80 -118 228 -248 354 -311 148 -74 258 -94 725 -131 470 -38 668 -46
1235 -46 627 0 1006 18 1535 71 257 25 383 65 539 169 97 64 226 203 284 306
86 153 111 256 142 589 89 970 85 1983 -11 2950 -19 194 -43 299 -94 407 -120
257 -355 450 -621 512 -117 28 -426 58 -889 87 -226 14 -1186 27 -1365 18z
m650 -1664 c86 -43 86 -43 84 -415 -3 -336 2 -385 41 -420 28 -26 65 -7 126
63 146 168 275 383 359 600 18 45 40 83 58 98 l29 25 329 -3 329 -3 26 -27
c24 -23 26 -31 20 -72 -13 -87 -97 -230 -282 -481 -196 -265 -234 -325 -234
-372 0 -39 52 -108 140 -184 88 -76 252 -259 316 -354 81 -120 83 -189 5 -237
-35 -22 -42 -23 -316 -23 -375 1 -341 -12 -581 230 -153 156 -186 184 -218
190 -29 6 -44 3 -64 -12 -32 -24 -46 -64 -70 -206 -32 -188 -37 -192 -267
-191 -168 0 -229 9 -360 51 -244 77 -457 241 -649 496 -169 227 -304 451 -456
762 -170 347 -178 371 -141 416 l19 24 274 -1 c353 -2 341 4 427 -197 115
-270 330 -589 410 -610 35 -9 66 29 82 99 15 65 19 413 5 497 -10 62 -53 113
-109 129 -52 14 -67 25 -67 48 0 28 74 88 117 95 21 4 45 8 53 10 8 2 128 3
265 2 244 -2 251 -3 300 -27z"/>
</g>
</svg>
